<svg width="1024" height="768" viewBox="0 0 1024 768" fill="none" xmlns="http://www.w3.org/2000/svg">
  <!-- Orange/Red Circular Arrow -->
  <path d="M350 200 Q300 150 350 100 Q400 50 500 100 Q550 125 575 175 L650 250 Q700 300 650 350 Q600 400 500 350 Q450 325 425 275 Z" fill="#FF6B35" opacity="0.9"/>
  <path d="M350 200 Q300 150 350 100 Q400 50 500 100 Q550 125 575 175" stroke="#E63946" stroke-width="30" fill="none" stroke-linecap="round"/>
  
  <!-- Yellow Arrow Tip -->
  <path d="M650 250 L700 200 L750 300 L650 250 Z" fill="#FFA500"/>
  <path d="M650 250 L700 200 L750 300" stroke="#FFB700" stroke-width="15" stroke-linejoin="round" fill="none"/>
  
  <!-- Blue Bars (3 bars going up) -->
  <rect x="420" y="220" width="60" height="100" rx="10" fill="#4A90E2" opacity="0.9"/>
  <rect x="490" y="180" width="60" height="140" rx="10" fill="#357ABD" opacity="0.95"/>
  <rect x="560" y="140" width="60" height="180" rx="10" fill="#2E5F8F"/>
  
  <!-- NEXORA Text -->
  <text x="512" y="480" font-family="Arial, sans-serif" font-size="120" font-weight="bold" fill="#4A90E2" text-anchor="middle">NEXORA</text>
  
  <!-- Trade As One Text -->
  <text x="512" y="580" font-family="Arial, sans-serif" font-size="60" font-weight="bold" fill="#E63946" text-anchor="middle">Trade As One</text>
</svg>
